<?xml version="1.0" encoding="utf-8"?>
<!-- Generator: Adobe Illustrator 18.0.0, SVG Export Plug-In . SVG Version: 6.00 Build 0)  -->
<!DOCTYPE svg PUBLIC "-//W3C//DTD SVG 1.1//EN" "http://www.w3.org/Graphics/SVG/1.1/DTD/svg11.dtd">
<svg version="1.1" id="Layer_1" xmlns="http://www.w3.org/2000/svg" xmlns:xlink="http://www.w3.org/1999/xlink" x="0px" y="0px"
	 viewBox="0 0 652.1 120.6" enable-background="new 0 0 652.1 120.6" xml:space="preserve">
<g>
	<g>
		<path d="M183.7,96.9c-23,0-34.6-12.3-34.6-36.6c0-24,12-36.6,34.8-36.6c9.6,0,18.1,3,24,8.5l0.8,0.7l-4.7,4.9l-0.7-0.6
			c-4.9-4.4-11.8-6.8-19.3-6.8c-18.5,0-27.8,10.1-27.8,30.1c0,20.2,9.1,30.1,27.8,30.1c10.8,0,16-3.5,19.8-7l0.7-0.7l4.8,4.8
			l-0.7,0.7C204.1,92.2,197.4,96.9,183.7,96.9z"/>
		<path d="M183.8,24.6c9,0,17.4,2.7,23.3,8.2l-3.4,3.5c-5.2-4.7-12.4-7.1-20-7.1C165,29.2,155,39.5,155,60.3
			c0,20.6,9.6,31.1,28.8,31.1c10.8,0,16.3-3.5,20.4-7.3l3.4,3.4c-4.6,4.4-11.2,8.5-24,8.5c-22.4,0-33.6-12-33.6-35.6
			C150.1,36.3,162.3,24.6,183.8,24.6 M183.8,22.6c-11.4,0-20.3,3.2-26.4,9.4c-6.2,6.4-9.4,15.9-9.4,28.2c0,12.3,3,21.7,8.9,28
			c6,6.4,14.9,9.6,26.7,9.6c14.1,0,21-4.8,25.4-9l1.5-1.4l-1.4-1.4l-3.4-3.4l-1.4-1.4l-1.4,1.3c-3.6,3.3-8.6,6.7-19.1,6.7
			c-18.1,0-26.8-9.5-26.8-29.1c0-9.7,2.3-17.1,6.8-21.9c4.4-4.7,11.2-7.1,20-7.1c7.3,0,13.9,2.3,18.6,6.6l1.4,1.3l1.3-1.4l3.4-3.5
			l1.4-1.5l-1.5-1.4C202.4,25.7,193.6,22.6,183.8,22.6L183.8,22.6z"/>
	</g>
	<g>
		<path d="M273.9,95.9l-17.7-30h-20.5v30h-6.9V24.7h29.8c15.6,0,23.2,6.7,23.2,20.4c0,12.3-6.1,19.2-18.2,20.5l17.8,30.2H273.9z
			 M258.8,59.4c11.3,0,16.1-4.2,16.1-14.1c0-9.9-4.9-14.1-16.4-14.1h-22.9v28.2H258.8z"/>
		<path d="M258.6,25.7c14.3,0,22.2,5.6,22.2,19.4c0,13-7,18.8-18.8,19.7l17.7,30h-5.2l-17.7-30h-22.1v30h-4.9V25.7H258.6
			 M234.6,60.4h24.2c10.3,0,17.1-3.4,17.1-15.1c0-11.6-6.6-15.1-17.4-15.1h-23.9V60.4 M258.6,23.7h-28.8h-2v2v69.1v2h2h4.9h2v-2v-28
			h19l17.1,29l0.6,1h1.1h5.2h3.5l-1.8-3l-16.2-27.4c11.5-1.8,17.6-9.2,17.6-21.3C282.8,30.9,274.6,23.7,258.6,23.7L258.6,23.7z
			 M236.6,32.2h21.9c10.9,0,15.4,3.8,15.4,13.1c0,9.3-4.4,13.1-15.1,13.1h-22.2V32.2L236.6,32.2z"/>
	</g>
	<g>
		<polygon points="322.5,95.9 322.5,67.5 293.8,24.7 301.6,24.7 326,61 350.5,24.7 358.1,24.7 329.4,67.3 329.4,95.9 		"/>
		<path d="M356.2,25.7L328.4,67v27.9h-4.9V67.2l-27.8-41.4h5.3l25,37l25-37H356.2 M359.9,23.7h-3.8H351H350l-0.6,0.9L326,59.2
			l-23.3-34.6l-0.6-0.9H301h-5.3H292l2.1,3.1l27.5,40.9v27.1v2h2h4.9h2v-2V67.6l27.5-40.7L359.9,23.7L359.9,23.7z"/>
	</g>
	<g>
		<path d="M374.6,95.9V24.7H405c15.8,0,23.1,6.6,23.1,20.8c0,14.5-7.7,21.8-22.9,21.8h-23.7v28.6H374.6z M405.2,60.8
			c11.1,0,16-4.7,16-15.2c0-10.4-4.6-14.4-16.4-14.4h-23.4v29.6H405.2z"/>
		<path d="M405,25.7c14.5,0,22.1,5.5,22.1,19.8c0,14.4-7.6,20.8-21.9,20.8h-24.7v28.6h-4.9V25.7H405 M380.4,61.8h24.8
			c10.7,0,17-4.4,17-16.2c0-11.8-6.1-15.4-17.4-15.4h-24.4V61.8 M405,23.7h-29.4h-2v2v69.1v2h2h4.9h2v-2V68.3h22.7
			c15.9,0,23.9-7.7,23.9-22.8C429.1,30.9,421.2,23.7,405,23.7L405,23.7z M382.4,32.2h22.4c11.2,0,15.4,3.6,15.4,13.4
			c0,10-4.5,14.2-15,14.2h-22.8V32.2L382.4,32.2z"/>
	</g>
	<g>
		<polygon points="467.6,95.9 467.6,31.3 441,31.3 441,24.7 501,24.7 501,31.3 474.4,31.3 474.4,95.9 		"/>
		<path d="M500,25.7v4.6h-26.6v64.6h-4.9V30.3H442v-4.6H500 M502,23.7h-2h-58h-2v2v4.6v2h2h24.6v62.6v2h2h4.9h2v-2V32.3H500h2v-2
			v-4.6V23.7L502,23.7z"/>
	</g>
	<g>
		<path d="M545,97c-23.3,0-35.2-12.4-35.2-36.7c0-24.3,11.8-36.6,35.2-36.6c23.4,0,35.3,12.3,35.3,36.6C580.3,84.6,568.5,97,545,97z
			 M545,30.2c-18.7,0-28.2,10.1-28.2,30.1c0,20.3,9.2,30.2,28.2,30.2c19.2,0,28.5-9.9,28.5-30.2C573.5,40.3,563.9,30.2,545,30.2z"/>
		<path d="M545,24.6c22.3,0,34.3,11.4,34.3,35.6S567.3,96,545,96c-22.1,0-34.2-11.5-34.2-35.7S522.9,24.6,545,24.6 M545,91.4
			c19.8,0,29.5-10.6,29.5-31.2c0-20.4-9.7-31.1-29.5-31.1c-19.6,0-29.2,10.6-29.2,31.1C515.8,80.8,525.4,91.4,545,91.4 M545,22.6
			c-11.7,0-20.7,3.1-26.8,9.3c-6.2,6.3-9.4,15.8-9.4,28.3c0,12.5,3.1,22,9.4,28.4c6.1,6.2,15.1,9.4,26.8,9.4c11.8,0,20.9-3.2,27-9.4
			c6.2-6.3,9.4-15.9,9.4-28.4c0-12.5-3.2-22-9.4-28.3C565.9,25.7,556.8,22.6,545,22.6L545,22.6z M545,89.4
			c-18.3,0-27.2-9.5-27.2-29.2c0-19.6,8.9-29.1,27.2-29.1c18.5,0,27.5,9.5,27.5,29.1C572.5,79.9,563.5,89.4,545,89.4L545,89.4z"/>
	</g>
	<g>
		<path d="M623.4,96.8c-10.7,0-19.5-2.5-27.9-7.8l-0.9-0.6l3.6-5.4l0.8,0.5c7.4,4.7,14.9,6.8,24.2,6.8c14.5,0,21-4.4,21-14.3
			c0-10-7.5-11.5-20-13.9l-1.1-0.2c-12.8-2.4-24.9-4.7-24.9-19.5c0-12.6,8.1-18.7,24.9-18.7c9.6,0,17.5,2.1,23.4,6.1l0.8,0.6
			l-3.7,5.6l-0.8-0.6c-5-3.4-12-5.2-19.7-5.2c-12.6,0-18,3.6-18,12.2c0,9,6.7,10.7,19.5,13.3l0.3,0.1c14.6,2.8,26.1,5,26.1,20.3
			C651.1,89.8,641.8,96.8,623.4,96.8z"/>
		<path d="M623.2,24.6c9.8,0,17.3,2.1,22.9,6l-2.6,3.9c-5.1-3.5-12.2-5.4-20.2-5.4c-12.9,0-19,3.9-19,13.2c0,9.9,7.7,11.8,20.3,14.3
			c14.7,2.8,25.6,4.8,25.6,19.4c0,13.6-9.1,19.9-26.7,19.9c-9.4,0-18.3-1.9-27.3-7.7l2.5-3.7c8.6,5.4,16.6,6.9,24.7,6.9
			c14.5,0,22-4.5,22-15.3c0-11.2-9-12.6-21.9-15.1c-13.8-2.6-24.1-4.9-24.1-18.6C599.3,29.7,607.7,24.6,623.2,24.6 M623.2,22.6
			c-17.4,0-25.9,6.5-25.9,19.7c0,15.7,12.5,18,25.7,20.5l1.1,0.2c13.3,2.6,19.2,4.1,19.2,12.9c0,6.2-2.3,13.3-20,13.3
			c-9.1,0-16.4-2-23.7-6.6l-1.6-1l-1.1,1.6l-2.5,3.7l-1.1,1.7l1.7,1.1c8.5,5.4,17.5,8,28.4,8c19,0,28.7-7.4,28.7-21.9
			c0-16.2-12.5-18.6-26.9-21.3l-0.3-0.1c-13.6-2.7-18.7-4.5-18.7-12.3c0-5.5,2-11.2,17-11.2c7.5,0,14.3,1.8,19.1,5.1l1.7,1.1
			l1.1-1.7l2.6-3.9l1.1-1.6l-1.6-1.1C641,24.7,633,22.6,623.2,22.6L623.2,22.6z"/>
	</g>
</g>
<circle fill="#39B54A" cx="60.3" cy="60.3" r="60.3"/>
<g>
	<g>
		<path fill="#FFFFFF" d="M78.6,92.1c0,4.4-3.6,8-8,8h-0.3c-4.4,0-8-3.6-8-8V46.7c0-4.4,3.6-8,8-8h0.3c4.4,0,8,3.6,8,8V92.1z"/>
		<path fill="none" stroke="#39B54A" stroke-miterlimit="10" d="M78.6,92.1c0,4.4-3.6,8-8,8h-0.3c-4.4,0-8-3.6-8-8V46.7
			c0-4.4,3.6-8,8-8h0.3c4.4,0,8,3.6,8,8V92.1z"/>
	</g>
	<g>
		<path fill="#FFFFFF" d="M76.3,87.5c2.6,3.1,2.2,7.8-0.9,10.4l-1.2,1c-3.1,2.6-7.8,2.2-10.4-0.9L24.2,51.4C21.6,48.3,22,43.6,25,41
			l1.2-1c3.1-2.6,7.8-2.2,10.4,0.9L76.3,87.5z"/>
		<path fill="none" stroke="#39B54A" stroke-width="2" stroke-miterlimit="10" d="M76.3,87.5c2.6,3.1,2.2,7.8-0.9,10.4l-1.2,1
			c-3.1,2.6-7.8,2.2-10.4-0.9L24.2,51.4C21.6,48.3,22,43.6,25,41l1.2-1c3.1-2.6,7.8-2.2,10.4,0.9L76.3,87.5z"/>
	</g>
	<circle fill="#FFFFFF" stroke="#39B54A" stroke-miterlimit="10" cx="70.5" cy="22.6" r="8.2"/>
</g>
</svg>
